<svg aria-hidden="true" style="position:absolute;width:0;height:0" xmlns="http://www.w3.org/2000/svg" overflow="hidden"><defs><symbol id="icon-facebooks" viewBox="0 0 15 32"><path d="M14.982.013v5.146s-3.793-.375-4.746 1.074c-.52.799-.211 3.123-.257 4.796h5.032c-.425 1.948-.729 3.272-1.043 4.971H9.951v15.988H2.979V16.063H.013v-5.034h2.934c.15-3.685.206-7.332 2.035-9.18C7.038-.237 9.001.013 14.983.013z"/></symbol><symbol id="icon-instagrams" viewBox="0 0 32 32"><path fill="var(--color2, #f38181)" d="M27.963 31.988H3.982a3.997 3.997 0 0 1-3.997-3.997V4.01A3.997 3.997 0 0 1 3.982.013h23.981A3.997 3.997 0 0 1 31.96 4.01v23.981a3.997 3.997 0 0 1-3.997 3.997zM15.973 9.805h-.001a6.187 6.187 0 0 0-5.603 3.559l-.016.038a.343.343 0 0 1-.028.064l.001-.001c-.059.137-.11.275-.16.412-.024.062-.05.125-.071.187-.046.137-.084.287-.125.425a4.512 4.512 0 0 0-.052.2c-.032.15-.055.3-.076.462-.009.062-.021.125-.029.187a5.87 5.87 0 0 0-.036.661V16a6.195 6.195 0 1 0 12.39 0 6.56 6.56 0 0 0-.039-.691l.003.029c-.008-.062-.02-.125-.029-.187a5.709 5.709 0 0 0-.076-.462 8.453 8.453 0 0 0-.052-.2c-.035-.137-.072-.287-.125-.425-.021-.062-.047-.125-.071-.187a7.763 7.763 0 0 0-.16-.412.297.297 0 0 1-.027-.06l-.001-.002c-1.004-2.14-3.139-3.596-5.615-3.597zm12.39-4.597v-.003c0-.882-.715-1.596-1.596-1.596h-3.203c-.882 0-1.596.715-1.596 1.596v3.203c0 .882.715 1.596 1.596 1.596h3.203c.882 0 1.596-.715 1.596-1.596v-3.2zm0 8.194h-2.948c.222.778.35 1.671.35 2.594 0 5.408-4.384 9.792-9.792 9.792s-9.792-4.384-9.792-9.792c0-.923.128-1.816.366-2.663l-.017.069H3.582v13.393c0 .882.715 1.596 1.596 1.596h21.589c.882 0 1.596-.715 1.596-1.596V13.402z"/></symbol><symbol id="icon-pinterests" viewBox="0 0 24 32"><path fill="var(--color2, #f38181)" d="M10.173 20.771c-.261 1.049-.525 2.136-.797 3.197a23.478 23.478 0 0 1-.95 3.249l.054-.163a15.88 15.88 0 0 1-2.574 4.436l.022-.027c-.718.824-.566.5-.782.45-.165-.037-.179-.2-.211-.425a24.211 24.211 0 0 1 .016-4.266l-.007.094c.115-1.598.376-3.08.774-4.506l-.038.159c.605-2.573 1.182-5.096 1.792-7.694.063-.162.104-.35.112-.546v-.004a7.84 7.84 0 0 1-.532-2.086l-.003-.037a6.8 6.8 0 0 1 .184-2.483l-.011.047a4.044 4.044 0 0 1 2.34-2.913l.026-.01a2.747 2.747 0 0 1 2.182.182l-.015-.007a2.32 2.32 0 0 1 1.081 1.534l.002.015a5.598 5.598 0 0 1-.108 2.4l.009-.039c-.334 1.524-.772 2.673-1.17 4.134a4.597 4.597 0 0 0-.233 2.287l-.003-.025a2.654 2.654 0 0 0 1.05 1.593l.008.005a3.09 3.09 0 0 0 2.04.574l-.01.001a4.466 4.466 0 0 0 3.301-1.945l.01-.016a11.521 11.521 0 0 0 2.09-5.819l.002-.039a14.831 14.831 0 0 0 .086-2.547l.002.037a6.815 6.815 0 0 0-1.419-3.913l.012.016a6.62 6.62 0 0 0-3.091-2.123l-.047-.013a10.12 10.12 0 0 0-2.958-.432c-.608 0-1.205.053-1.784.153l.062-.009A8.284 8.284 0 0 0 4.57 7.61l-.022.046a8.733 8.733 0 0 0-1.046 4.173v.091-.005a5.524 5.524 0 0 0 .86 3.146l-.013-.022c.166.25.41.462.572.749a2.132 2.132 0 0 1-.154 1.461l.006-.013c-.137.537-.152 1.262-.772 1.274a1.714 1.714 0 0 1-.802-.303l.005.004a6.394 6.394 0 0 1-3.022-4.64l-.003-.032c-.118-.607-.185-1.304-.185-2.017s.067-1.411.196-2.086l-.011.069a11.591 11.591 0 0 1 5.442-7.652l.054-.029A12.78 12.78 0 0 1 10.488.158l.067-.007c.59-.089 1.283-.147 1.987-.162h.018a11.993 11.993 0 0 1 5.48 1.029l-.076-.03c1.461.655 2.7 1.562 3.714 2.676l.008.009a10.137 10.137 0 0 1 2.273 4.063l.017.072c.292.849.472 1.829.499 2.847v.013a17.325 17.325 0 0 1-.407 3.076l.022-.116a11.66 11.66 0 0 1-4.759 8.033l-.035.024a8.568 8.568 0 0 1-5.012 1.374h.016a5.785 5.785 0 0 1-2.506-.739l.029.015a4.161 4.161 0 0 1-1.637-1.543l-.01-.019z"/></symbol><symbol id="icon-twitters" viewBox="0 0 39 32"><path fill="var(--color2, #f38181)" d="M26.811.015a8.277 8.277 0 0 1 6.387 2.537l.003.003a13.3 13.3 0 0 0 4.212-1.436l-.07.035L38.348.6a8.157 8.157 0 0 1-2.602 3.79l-.015.012a3.882 3.882 0 0 1-.867.621l-.021.01v.015a14.998 14.998 0 0 0 4.67-1.27l-.094.038v.015a13.234 13.234 0 0 1-2.721 3.123l-.021.017c-.42.339-.842.677-1.262 1a23.448 23.448 0 0 1-.397 5.348l.023-.146c-2.019 9.066-7.37 15.223-15.837 17.87-2.009.597-4.318.941-6.707.941-1.675 0-3.31-.169-4.889-.491l.157.027a30.287 30.287 0 0 1-4.951-1.631l.2.076A19.495 19.495 0 0 1 .638 28.73l.087.05c-.237-.139-.473-.292-.71-.431a14.064 14.064 0 0 0 2.62.09l-.038.002c.796-.123 1.575-.092 2.309-.246a16.55 16.55 0 0 0 4.934-1.798l-.084.043a9.196 9.196 0 0 0 2.2-1.44l-.01.009a7.026 7.026 0 0 1-2.454-.447l.049.016c-2.432-.84-4.308-2.73-5.112-5.114l-.017-.057a8.014 8.014 0 0 0 3.666-.183l-.056.014a5.792 5.792 0 0 1-2.659-1.073l.016.011c-2.296-1.372-3.81-3.845-3.81-6.671 0-.084.001-.168.004-.252v.012c.277.123.553.262.828.385.486.204 1.055.37 1.646.471l.047.007a2.17 2.17 0 0 0 1.119.09l-.013.002h-.04c-.406-.462-1.07-.785-1.479-1.293a8.219 8.219 0 0 1-2.036-5.429c0-.673.081-1.327.232-1.954l-.012.056a9.197 9.197 0 0 1 .892-2.154l-.024.045c.014 0 .026.015.04.015.216.319.457.597.726.843l.004.003c.716.862 1.505 1.62 2.371 2.283l.035.026a23.59 23.59 0 0 0 9.721 4.741l.159.03c1.084.287 2.333.46 3.619.477h.011a7.39 7.39 0 0 1-.224-1.827c0-.703.096-1.383.275-2.028l-.013.053A7.987 7.987 0 0 1 23.982.709l.051-.02a8.701 8.701 0 0 1 1.736-.544l.058-.01c.326-.046.656-.077.984-.123z"/></symbol><symbol id="icon-facebook" viewBox="0 0 32 32"><path d="M19 6h5V0h-5c-3.86 0-7 3.14-7 7v3H8v6h4v16h6V16h5l1-6h-6V7c0-.542.458-1 1-1z"/></symbol><symbol id="icon-instagram" viewBox="0 0 32 32"><path d="M16 2.881c4.275 0 4.781.019 6.462.094 1.563.069 2.406.331 2.969.55a4.952 4.952 0 0 1 1.837 1.194 5.015 5.015 0 0 1 1.2 1.838c.219.563.481 1.412.55 2.969.075 1.688.094 2.194.094 6.463s-.019 4.781-.094 6.463c-.069 1.563-.331 2.406-.55 2.969a4.94 4.94 0 0 1-1.194 1.837 5.02 5.02 0 0 1-1.837 1.2c-.563.219-1.413.481-2.969.55-1.688.075-2.194.094-6.463.094s-4.781-.019-6.463-.094c-1.563-.069-2.406-.331-2.969-.55a4.952 4.952 0 0 1-1.838-1.194 5.02 5.02 0 0 1-1.2-1.837c-.219-.563-.481-1.413-.55-2.969-.075-1.688-.094-2.194-.094-6.463s.019-4.781.094-6.463c.069-1.563.331-2.406.55-2.969a4.964 4.964 0 0 1 1.194-1.838 5.015 5.015 0 0 1 1.838-1.2c.563-.219 1.412-.481 2.969-.55 1.681-.075 2.188-.094 6.463-.094zM16 0c-4.344 0-4.887.019-6.594.094-1.7.075-2.869.35-3.881.744-1.056.412-1.95.956-2.837 1.85a7.833 7.833 0 0 0-1.85 2.831C.444 6.538.169 7.7.094 9.4.019 11.113 0 11.656 0 16s.019 4.887.094 6.594c.075 1.7.35 2.869.744 3.881.413 1.056.956 1.95 1.85 2.837a7.82 7.82 0 0 0 2.831 1.844c1.019.394 2.181.669 3.881.744 1.706.075 2.25.094 6.594.094s4.888-.019 6.594-.094c1.7-.075 2.869-.35 3.881-.744 1.05-.406 1.944-.956 2.831-1.844s1.438-1.781 1.844-2.831c.394-1.019.669-2.181.744-3.881.075-1.706.094-2.25.094-6.594s-.019-4.887-.094-6.594c-.075-1.7-.35-2.869-.744-3.881a7.506 7.506 0 0 0-1.831-2.844A7.82 7.82 0 0 0 26.482.843C25.463.449 24.301.174 22.601.099c-1.712-.081-2.256-.1-6.6-.1z"/><path d="M16 7.781c-4.537 0-8.219 3.681-8.219 8.219s3.681 8.219 8.219 8.219 8.219-3.681 8.219-8.219A8.221 8.221 0 0 0 16 7.781zm0 13.55a5.331 5.331 0 1 1 0-10.663 5.331 5.331 0 0 1 0 10.663zM26.462 7.456a1.919 1.919 0 1 1-3.838 0 1.919 1.919 0 0 1 3.838 0z"/></symbol><symbol id="icon-twitter" viewBox="0 0 32 32"><path d="M32 7.075a12.941 12.941 0 0 1-3.769 1.031 6.601 6.601 0 0 0 2.887-3.631 13.21 13.21 0 0 1-4.169 1.594A6.565 6.565 0 0 0 22.155 4a6.563 6.563 0 0 0-6.563 6.563c0 .512.056 1.012.169 1.494A18.635 18.635 0 0 1 2.23 5.195a6.56 6.56 0 0 0-.887 3.3 6.557 6.557 0 0 0 2.919 5.463 6.565 6.565 0 0 1-2.975-.819v.081a6.565 6.565 0 0 0 5.269 6.437 6.574 6.574 0 0 1-2.968.112 6.588 6.588 0 0 0 6.131 4.563 13.17 13.17 0 0 1-9.725 2.719 18.568 18.568 0 0 0 10.069 2.95c12.075 0 18.681-10.006 18.681-18.681 0-.287-.006-.569-.019-.85A13.216 13.216 0 0 0 32 7.076z"/></symbol><symbol id="icon-pinterest2" viewBox="0 0 32 32"><path d="M16 0C7.175 0 0 7.175 0 16s7.175 16 16 16 16-7.175 16-16S24.825 0 16 0zm0 29.863c-1.431 0-2.806-.219-4.106-.619.563-.919 1.412-2.431 1.725-3.631.169-.65.863-3.294.863-3.294.45.863 1.775 1.594 3.175 1.594 4.181 0 7.194-3.844 7.194-8.625 0-4.581-3.738-8.006-8.544-8.006-5.981 0-9.156 4.019-9.156 8.387 0 2.031 1.081 4.563 2.813 5.369.262.125.4.069.463-.188.044-.194.281-1.131.387-1.575a.427.427 0 0 0-.094-.4c-.575-.694-1.031-1.975-1.031-3.162 0-3.056 2.313-6.019 6.256-6.019 3.406 0 5.788 2.319 5.788 5.637 0 3.75-1.894 6.35-4.356 6.35-1.363 0-2.381-1.125-2.05-2.506.394-1.65 1.15-3.425 1.15-4.613 0-1.063-.569-1.95-1.756-1.95-1.394 0-2.506 1.438-2.506 3.369 0 1.225.412 2.056.412 2.056s-1.375 5.806-1.625 6.887c-.281 1.2-.169 2.881-.05 3.975-5.156-2.012-8.813-7.025-8.813-12.9 0-7.656 6.206-13.863 13.862-13.863s13.863 6.206 13.863 13.863c0 7.656-6.206 13.863-13.863 13.863z"/></symbol></defs></svg>